<svg xmlns="http://www.w3.org/2000/svg" viewBox="0 0 160 160" role="img" aria-labelledby="title desc">
  <title id="title">BMGA logo mark</title>
  <desc id="desc">India map, DNA helix, and microbial network logo mark for Bharat Microbial Genome Atlas.</desc>
  <defs>
    <radialGradient id="bg" cx="45%" cy="42%" r="70%">
      <stop offset="0" stop-color="#0EA5E9" stop-opacity="0.42"/>
      <stop offset="0.48" stop-color="#0B1B3A"/>
      <stop offset="1" stop-color="#06122A"/>
    </radialGradient>
    <linearGradient id="ring" x1="16" y1="30" x2="142" y2="136">
      <stop offset="0" stop-color="#0B2F7A"/>
      <stop offset="0.48" stop-color="#F59E0B"/>
      <stop offset="1" stop-color="#22D3EE"/>
    </linearGradient>
    <linearGradient id="helix" x1="58" y1="30" x2="96" y2="128">
      <stop offset="0" stop-color="#FFFFFF"/>
      <stop offset="0.35" stop-color="#22D3EE"/>
      <stop offset="0.62" stop-color="#F59E0B"/>
      <stop offset="1" stop-color="#FFFFFF"/>
    </linearGradient>
    <filter id="glow" x="-40%" y="-40%" width="180%" height="180%">
      <feGaussianBlur stdDeviation="3" result="blur"/>
      <feMerge>
        <feMergeNode in="blur"/>
        <feMergeNode in="SourceGraphic"/>
      </feMerge>
    </filter>
  </defs>
  <rect width="160" height="160" rx="34" fill="url(#bg)"/>
  <circle cx="80" cy="80" r="58" fill="none" stroke="url(#ring)" stroke-width="6" stroke-linecap="round" stroke-dasharray="122 28 68 24"/>
  <circle cx="80" cy="80" r="43" fill="none" stroke="#38BDF8" stroke-opacity="0.24" stroke-width="1.5" stroke-dasharray="5 8"/>
  <path d="M76 23c9 8 16 14 18 24 2 9-4 18-13 25-11 8-22 15-22 28 0 10 7 21 20 34" fill="none" stroke="url(#helix)" stroke-width="7" stroke-linecap="round" filter="url(#glow)"/>
  <path d="M93 27c-10 13-25 21-28 35-2 9 4 17 14 24 11 8 22 16 21 29-1 9-8 17-19 24" fill="none" stroke="url(#helix)" stroke-width="7" stroke-linecap="round"/>
  <g stroke="#E0F2FE" stroke-width="2" stroke-linecap="round">
    <line x1="68" y1="49" x2="91" y2="47"/>
    <line x1="63" y1="64" x2="86" y2="69"/>
    <line x1="65" y1="82" x2="93" y2="87"/>
    <line x1="62" y1="101" x2="96" y2="104"/>
    <line x1="69" y1="119" x2="89" y2="119"/>
  </g>
  <path d="M44 47l13-8 17 3 9 8 13-4 14 9-5 16 8 10-7 13-16-1-8 12 7 16-13 9-13-13-17 1-5-15-14-7 7-15-6-13 12-9z" fill="#082F6F" stroke="#0EA5E9" stroke-width="2.5" opacity="0.9"/>
  <g stroke="#67E8F9" stroke-width="1.8" stroke-linecap="round" opacity="0.85">
    <line x1="49" y1="63" x2="65" y2="54"/>
    <line x1="65" y1="54" x2="84" y2="58"/>
    <line x1="84" y1="58" x2="102" y2="70"/>
    <line x1="49" y1="63" x2="57" y2="86"/>
    <line x1="57" y1="86" x2="78" y2="88"/>
    <line x1="78" y1="88" x2="101" y2="92"/>
    <line x1="57" y1="86" x2="70" y2="112"/>
    <line x1="70" y1="112" x2="90" y2="108"/>
  </g>
  <g filter="url(#glow)">
    <circle cx="49" cy="63" r="5" fill="#22D3EE"/>
    <circle cx="65" cy="54" r="4.5" fill="#2DD4BF"/>
    <circle cx="84" cy="58" r="4.5" fill="#F59E0B"/>
    <circle cx="102" cy="70" r="4" fill="#FFFFFF"/>
    <circle cx="57" cy="86" r="5" fill="#22D3EE"/>
    <circle cx="78" cy="88" r="4" fill="#FFFFFF"/>
    <circle cx="101" cy="92" r="4.5" fill="#F59E0B"/>
    <circle cx="70" cy="112" r="4" fill="#22D3EE"/>
    <circle cx="90" cy="108" r="4" fill="#FFFFFF"/>
  </g>
  <circle cx="34" cy="111" r="11" fill="#22D3EE" fill-opacity="0.2" stroke="#22D3EE" stroke-width="2"/>
  <path d="M29 108l10 7" stroke="#E0F2FE" stroke-width="4" stroke-linecap="round"/>
  <circle cx="122" cy="101" r="12" fill="#FFFFFF" fill-opacity="0.08" stroke="#E0F2FE" stroke-width="2"/>
  <path d="M117 96l10 10M127 96l-10 10" stroke="#E0F2FE" stroke-width="4" stroke-linecap="round"/>
  <circle cx="118" cy="36" r="6" fill="#F59E0B"/>
  <circle cx="126" cy="125" r="6" fill="#22D3EE"/>
</svg>
